<?xml version="1.0" standalone="no"?>
<!DOCTYPE svg PUBLIC "-//W3C//DTD SVG 20010904//EN"
 "http://www.w3.org/TR/2001/REC-SVG-20010904/DTD/svg10.dtd">
<svg version="1.0" xmlns="http://www.w3.org/2000/svg"
 width="300.000000pt" height="312.000000pt" viewBox="0 0 300.000000 312.000000"
 preserveAspectRatio="xMidYMid meet">
<metadata>
Created by potrace 1.10, written by Peter Selinger 2001-2011
</metadata>
<g transform="translate(0.000000,312.000000) scale(0.100000,-0.100000)"
fill="#000000" stroke="none">
<path d="M1384 2801 c-17 -4 -51 -17 -75 -28 -24 -12 -61 -26 -81 -33 -21 -6
-38 -15 -38 -20 0 -4 -10 -10 -23 -14 -13 -3 -43 -21 -68 -39 -24 -19 -55 -37
-68 -42 -41 -13 -91 -46 -91 -62 0 -8 -4 -12 -8 -9 -11 7 -40 -25 -122 -133
-70 -93 -146 -239 -195 -376 -18 -49 -49 -128 -70 -175 -39 -91 -66 -180 -59
-192 3 -5 1 -8 -5 -8 -17 0 -34 -140 -27 -235 7 -112 23 -248 35 -299 6 -23 6
-83 1 -145 -8 -103 -12 -124 -30 -166 -5 -11 -14 -38 -19 -60 -15 -58 -61 -95
-181 -145 -58 -24 -112 -50 -121 -57 -16 -13 -29 -105 -29 -198 0 -17 -10 -40
-24 -55 -13 -14 -29 -36 -36 -49 -13 -24 -14 -34 -26 -141 -4 -36 -12 -68 -18
-72 -7 -5 -5 -8 6 -8 10 0 22 -9 28 -20 6 -11 16 -20 22 -20 6 0 5 6 -3 16
-16 20 -13 127 4 159 6 11 12 27 14 37 1 9 21 51 43 94 22 43 38 84 36 90 -2
6 1 17 7 23 8 8 5 11 -11 11 -22 0 -28 10 -15 23 3 4 12 2 20 -5 19 -15 27 -4
14 21 -8 14 -8 22 1 27 8 5 6 10 -8 15 -18 7 -18 8 1 8 17 1 17 3 5 11 -10 7
-11 10 -2 11 6 1 15 2 20 3 4 1 33 8 64 16 32 7 58 16 58 20 0 15 -14 19 -28
8 -8 -7 -19 -13 -26 -15 -6 -1 -22 -5 -36 -9 -25 -6 -25 -6 -4 9 36 27 131 56
143 44 8 -8 11 -8 11 1 0 7 8 12 18 12 9 1 28 7 42 15 30 17 22 19 -17 5 -27
-10 -27 -9 9 24 20 19 34 37 30 40 -3 3 4 6 16 6 12 0 22 -5 22 -10 0 -6 11
-3 25 6 14 9 22 21 18 27 -4 6 0 8 10 4 11 -4 15 -1 12 14 -2 12 2 19 11 19 8
0 13 4 9 9 -3 6 3 14 12 20 10 5 14 13 9 18 -5 4 -11 2 -13 -5 -3 -6 -10 -9
-15 -6 -7 4 -8 2 -4 -4 4 -6 -5 -18 -21 -26 -16 -9 -21 -16 -13 -16 12 0 11
-4 -4 -15 -14 -11 -16 -15 -5 -15 12 0 12 -2 -1 -10 -23 -15 -30 -12 -30 10 0
11 5 20 10 20 6 0 10 5 10 12 0 9 -3 9 -12 0 -7 -7 -16 -12 -20 -12 -16 0 -8
21 17 44 14 13 25 30 25 37 0 11 -2 11 -10 -1 -8 -12 -10 -10 -10 8 0 13 4 21
9 17 14 -8 21 23 26 120 2 48 7 96 11 107 3 11 -2 30 -11 45 -17 25 -21 41
-29 113 -2 19 -7 56 -11 83 -5 29 -4 47 2 47 13 0 25 -54 17 -75 -4 -8 -1 -15
6 -15 16 0 7 72 -12 102 -15 23 -16 89 -3 186 2 21 0 30 -7 26 -6 -4 -5 3 2
16 10 18 14 20 21 9 13 -20 11 -1 -2 24 -7 12 -8 19 -4 15 12 -11 36 28 29 46
-3 9 -10 13 -15 10 -5 -3 -6 2 -3 10 3 9 10 16 16 16 5 0 7 -4 3 -9 -3 -5 -1
-12 5 -16 5 -3 10 3 10 15 0 12 4 18 10 15 6 -3 7 1 4 9 -3 9 -1 16 4 16 6 0
14 9 17 20 3 11 13 27 22 35 8 9 13 18 10 21 -3 3 -21 -17 -39 -45 -24 -35
-38 -47 -47 -42 -11 7 -10 11 3 18 9 5 18 19 19 31 1 12 8 22 15 22 9 0 12 6
8 17 -4 10 -4 14 0 10 14 -13 33 28 28 59 -5 26 -2 32 16 37 16 4 21 11 16 23
-4 9 8 45 29 86 20 39 34 73 31 75 -3 3 -10 -7 -16 -22 -6 -15 -13 -25 -17
-22 -3 4 11 42 32 87 21 44 40 78 43 76 2 -2 -2 -14 -8 -26 -6 -12 -10 -24 -8
-26 5 -5 48 74 48 88 0 5 -5 6 -12 2 -7 -4 -8 -3 -4 5 4 6 12 8 18 5 8 -5 9
-1 4 12 -4 10 -4 15 0 12 8 -8 54 45 54 62 0 7 7 10 15 6 9 -3 23 3 33 16 9
12 33 40 52 62 19 23 25 32 12 22 -12 -11 -22 -14 -22 -8 0 6 14 16 30 24 17
7 30 18 30 25 0 7 9 17 20 23 11 6 18 15 15 21 -4 5 2 9 12 9 11 0 24 5 31 12
6 6 15 9 19 5 3 -4 -2 -14 -13 -22 -29 -22 -3 -18 31 5 24 16 26 20 10 20 -13
0 -16 3 -8 11 6 6 17 11 24 13 8 1 34 16 58 34 24 18 51 32 60 33 12 0 11 3
-4 9 -13 5 8 8 57 7 77 -1 104 7 79 22 -7 5 -9 11 -5 14 13 7 73 1 82 -8 4 -5
0 -5 -8 0 -9 5 -12 5 -7 -1 5 -5 13 -10 18 -10 22 -3 23 -5 9 -15 -13 -9 -13
-10 1 -6 9 3 22 0 28 -6 24 -24 9 9 -16 35 -14 15 -23 31 -19 35 4 5 14 -1 23
-12 48 -65 53 -70 47 -50 -6 20 -5 20 10 1 15 -18 16 -18 16 -2 0 25 22 15 27
-13 2 -15 -1 -20 -9 -15 -7 4 -8 3 -4 -4 4 -7 3 -12 -3 -12 -5 0 -11 5 -13 12
-3 8 -7 6 -11 -5 -4 -10 -2 -16 5 -14 7 1 17 -8 23 -20 13 -31 27 -29 15 2 -5
14 -7 26 -5 26 11 3 26 7 33 8 4 1 -2 8 -12 16 -11 8 -15 15 -10 15 6 0 16 -6
23 -12 10 -11 16 -8 29 10 14 18 20 20 31 10 9 -8 12 -9 7 -1 -3 6 -2 14 4 18
9 5 14 -7 11 -27 0 -4 6 -5 15 -1 10 3 12 8 5 12 -6 4 -2 12 9 19 11 7 20 8
20 3 0 -5 34 -14 75 -20 42 -6 98 -22 126 -37 28 -14 58 -23 67 -21 12 3 7 9
-18 20 -19 8 -33 19 -31 24 3 4 -24 22 -60 40 -60 30 -69 32 -139 26 -41 -3
-85 -6 -97 -6 -13 -1 -23 -6 -23 -11 0 -6 -4 -5 -9 2 -6 10 -10 10 -21 -3 -9
-11 -9 -15 -1 -15 7 0 9 -4 6 -10 -7 -11 -28 -14 -22 -2 3 4 1 16 -4 27 -6 17
-8 17 -8 3 -1 -25 -20 -22 -51 7 -30 28 -101 40 -156 26z m-475 -308 c-12 -15
-12 -16 4 -10 12 5 8 -6 -15 -34 -18 -22 -34 -35 -36 -29 -2 6 3 17 13 23 9 7
17 19 18 27 3 18 16 40 24 40 3 0 -1 -8 -8 -17z"/>
<path d="M1255 2706 c-11 -7 -33 -21 -48 -30 -16 -10 -26 -20 -23 -23 3 -3 12
0 21 7 8 7 35 14 59 16 48 3 119 33 80 34 -11 0 -35 -7 -53 -16 -18 -9 -35
-14 -38 -11 -3 4 6 9 21 13 14 3 23 10 20 15 -7 12 -15 11 -39 -5z"/>
<path d="M1880 2700 c12 -7 8 -10 -14 -10 -16 0 -27 -3 -23 -6 3 -4 23 -3 43
1 28 5 34 9 23 16 -8 5 -21 9 -29 9 -13 0 -13 -1 0 -10z"/>
<path d="M1620 2665 c0 -8 8 -23 18 -33 9 -9 16 -26 14 -37 -4 -20 -4 -20 11
0 17 22 13 35 -9 35 -8 0 -14 6 -13 13 3 23 -1 37 -11 37 -5 0 -10 -7 -10 -15z"/>
<path d="M1910 2674 c9 -3 20 -14 25 -26 6 -12 17 -24 25 -26 12 -4 11 -1 -2
15 -30 33 -20 39 12 8 20 -19 30 -24 30 -14 1 10 4 8 11 -5 9 -14 8 -20 -2
-27 -10 -6 -7 -8 9 -6 16 1 20 6 17 18 -9 27 38 18 53 -10 18 -34 15 -35 -14
-4 l-25 28 6 -30 c4 -16 7 -30 8 -30 1 0 17 -13 36 -30 19 -16 31 -24 27 -17
-4 6 -3 12 1 12 5 0 9 9 9 20 0 10 -2 17 -4 15 -6 -5 -37 34 -45 58 -4 9 -12
16 -19 15 -7 -2 -12 3 -10 10 1 8 -1 11 -6 8 -17 -10 -62 -14 -62 -5 0 5 -7 9
-15 9 -8 0 -15 5 -15 10 0 6 -15 9 -32 9 -18 -1 -26 -3 -18 -5z"/>
<path d="M1373 2657 c-53 -20 -48 -26 10 -13 41 10 59 10 67 2 8 -8 9 -6 5 7
-8 19 -36 21 -82 4z"/>
<path d="M1460 2667 c0 -2 14 -16 30 -30 26 -24 30 -25 30 -9 0 10 -11 24 -25
30 -27 12 -35 14 -35 9z"/>
<path d="M1586 2608 c5 -8 2 -9 -11 -5 -16 7 -17 6 -1 -17 9 -14 16 -32 16
-40 0 -7 9 -24 21 -37 l21 -24 -16 25 c-20 31 -20 40 -1 40 17 0 19 9 5 30 -8
12 -10 12 -10 -5 0 -17 -2 -17 -10 -5 -5 8 -7 23 -4 33 3 9 0 17 -6 17 -6 0
-8 -5 -4 -12z"/>
<path d="M1240 2579 c24 -11 24 -11 5 -20 -17 -8 -16 -9 5 -4 14 2 39 5 55 6
30 1 30 1 -5 9 -19 5 -46 11 -60 14 l-25 7 25 -12z"/>
<path d="M1420 2571 c0 -12 46 -26 72 -22 10 1 31 -13 49 -31 30 -32 31 -32
14 -4 -9 16 -12 25 -6 22 6 -4 11 0 11 9 0 9 -4 13 -10 10 -5 -3 -10 -2 -10 3
0 5 -17 9 -37 9 -21 0 -48 4 -60 8 -15 5 -23 3 -23 -4z"/>
<path d="M1640 2550 c0 -18 11 -25 34 -21 5 1 6 -5 3 -14 -4 -8 -3 -15 2 -15
5 0 12 11 15 25 6 23 8 24 22 10 8 -8 12 -21 8 -27 -4 -7 -4 -10 1 -6 4 4 14
0 22 -10 12 -16 13 -16 7 1 -3 9 -1 24 6 32 12 15 4 20 -22 16 -5 0 -8 4 -8 9
0 17 -28 11 -40 -7 -9 -16 -10 -15 -5 5 4 13 2 22 -4 22 -6 0 -11 -7 -11 -15
0 -8 -5 -15 -11 -15 -6 0 -9 7 -5 15 3 8 1 15 -4 15 -6 0 -10 -9 -10 -20z"/>
<path d="M1051 2520 c-23 -17 -39 -35 -36 -40 9 -14 29 -2 40 23 6 12 15 22
22 22 7 0 18 6 25 13 24 24 -9 12 -51 -18z"/>
<path d="M1342 2533 c9 -2 19 -11 22 -19 6 -16 -1 -16 -81 3 -13 3 -23 0 -23
-6 0 -6 -7 -11 -15 -11 -8 0 -15 -4 -15 -9 0 -5 -10 -11 -22 -15 -29 -7 -111
-78 -114 -98 -3 -21 -34 -68 -45 -68 -6 0 -13 -8 -17 -17 -4 -10 -18 -38 -31
-62 -18 -34 -25 -41 -33 -30 -7 10 -8 8 -3 -8 4 -14 -5 -44 -24 -84 -17 -33
-28 -65 -25 -70 3 -5 -1 -9 -9 -9 -7 0 -14 -6 -14 -12 0 -7 -17 -47 -37 -89
-20 -42 -36 -83 -36 -92 0 -10 -5 -17 -11 -17 -6 0 -9 -9 -6 -20 3 -11 1 -17
-4 -14 -6 3 -7 -4 -4 -18 3 -13 1 -36 -4 -51 -6 -15 -8 -34 -4 -43 4 -11 10
-3 20 27 8 24 26 72 40 107 30 71 61 92 137 92 56 0 193 -44 253 -81 20 -13
34 -16 38 -9 3 5 1 10 -5 10 -6 0 -8 4 -5 10 4 6 -1 7 -11 3 -11 -4 -15 -3
-10 5 3 6 4 23 0 37 -5 20 -9 23 -15 13 -7 -10 -16 -6 -39 20 -28 29 -70 46
-55 22 6 -10 -9 -15 -30 -10 -5 1 -15 3 -22 4 -7 1 -16 6 -20 11 -4 4 2 6 13
3 12 -3 27 -2 34 2 7 4 -20 11 -60 15 -65 7 -78 5 -121 -16 -26 -13 -52 -33
-58 -44 -5 -11 -10 -15 -10 -9 -1 16 25 65 31 59 6 -7 113 227 111 243 0 7 2
11 5 8 9 -10 34 33 26 46 -4 6 -3 8 3 5 6 -4 14 4 17 18 4 14 11 23 16 20 5
-3 7 1 4 9 -4 10 16 37 54 76 59 59 108 88 156 92 17 2 22 7 18 18 -4 12 -2
12 8 3 7 -6 19 -9 26 -6 8 3 21 -1 30 -8 12 -10 15 -10 12 2 -2 9 5 14 20 13
18 -1 20 1 11 12 -9 11 -8 14 4 14 9 0 19 -4 22 -10 3 -5 11 -10 18 -10 8 0 8
3 -1 12 -7 7 -12 16 -12 21 0 6 14 -6 31 -24 19 -22 27 -26 20 -12 -15 30 -14
38 4 23 12 -10 15 -10 15 1 0 8 6 5 16 -7 15 -18 15 -18 4 3 -14 30 -28 37
-45 23 -9 -7 -15 -8 -20 0 -9 15 -51 12 -65 -5 -12 -14 -15 -14 -30 0 -9 8
-23 14 -31 14 -9 -1 -9 -3 3 -6z"/>
<path d="M2136 2514 c-9 -23 -7 -36 3 -30 11 7 23 -22 14 -37 -4 -6 0 -8 10
-4 11 4 20 -5 31 -33 8 -22 25 -44 36 -50 11 -6 20 -16 20 -23 0 -8 -4 -7 -11
3 -9 12 -10 12 -5 -3 3 -10 6 -25 6 -34 0 -10 6 -13 16 -9 12 4 15 2 11 -9 -4
-8 -1 -17 4 -21 6 -3 20 -27 30 -52 11 -26 24 -49 28 -52 12 -8 51 -95 51
-113 0 -9 4 -17 9 -17 8 0 21 -25 26 -50 11 -50 18 -69 26 -65 5 4 6 -1 3 -9
-4 -12 0 -16 17 -17 17 -1 19 -3 7 -6 -14 -4 -15 -8 -6 -29 9 -18 14 -21 21
-12 5 9 7 4 3 -14 -4 -19 -1 -30 11 -37 10 -6 12 -11 6 -11 -9 0 -10 -7 -3
-26 6 -14 10 -32 10 -41 0 -14 -3 -14 -20 2 -15 14 -17 21 -9 32 11 13 10 14
-11 17 -6 0 -19 15 -30 31 -11 17 -20 26 -20 20 0 -5 9 -23 20 -40 23 -35 27
-60 5 -31 -8 11 -15 15 -15 8 0 -6 8 -17 18 -24 10 -7 24 -28 31 -46 14 -34
40 -60 27 -27 -6 16 -4 16 10 4 10 -8 12 -15 5 -17 -14 -5 -15 -22 -1 -22 20
0 22 31 4 52 -14 15 -16 22 -6 25 6 3 10 8 7 13 -3 4 -7 42 -9 84 -2 50 -9 83
-19 94 -21 24 -78 140 -83 169 -9 50 -56 153 -67 146 -6 -4 -8 0 -4 11 4 10
-1 24 -14 37 -19 19 -44 58 -80 126 -9 18 -19 29 -23 26 -3 -4 -6 3 -6 14 0
12 -7 24 -16 27 -8 3 -13 10 -10 15 3 5 -1 14 -9 21 -8 7 -15 21 -15 31 0 23
-25 25 -34 3z"/>
<path d="M1189 2501 l-24 -20 25 6 c14 4 31 13 38 20 22 22 -12 16 -39 -6z"/>
<path d="M1777 2514 c-3 -3 -1 -17 5 -30 l11 -24 19 22 c24 28 23 36 -2 13
-17 -15 -20 -16 -15 -3 6 16 -7 32 -18 22z"/>
<path d="M2090 2505 c0 -3 13 -26 29 -52 16 -27 32 -58 36 -71 9 -32 23 -19
17 18 -2 17 -10 30 -18 30 -8 0 -14 5 -14 11 0 6 -7 17 -15 26 -8 8 -13 18
-10 23 3 4 -2 10 -10 14 -8 3 -15 3 -15 1z"/>
<path d="M1839 2498 c-1 -5 -2 -11 -3 -15 -1 -5 -5 -14 -10 -22 -7 -10 -6 -12
4 -6 7 4 15 3 19 -3 4 -6 12 -8 18 -4 8 5 6 15 -7 32 -11 14 -20 22 -21 18z"/>
<path d="M1063 2468 c-4 -7 -8 -16 -8 -20 0 -4 -7 -16 -16 -26 -26 -31 -30
-40 -17 -48 7 -4 10 -3 5 1 -4 5 2 18 14 31 11 12 21 28 23 35 1 8 5 20 9 27
5 6 6 12 3 12 -3 0 -8 -6 -13 -12z"/>
<path d="M2090 2455 c-2 -59 -2 -74 0 -117 2 -45 69 -232 70 -196 0 10 -9 39
-19 67 -23 56 -16 75 11 34 24 -37 23 -26 -3 31 -11 25 -17 51 -14 56 10 17
-5 54 -18 41 -7 -7 -7 -14 1 -24 9 -11 8 -14 -4 -14 -12 0 -15 8 -12 33 2 18
0 30 -4 28 -11 -7 -10 13 1 35 6 10 6 23 1 31 -7 12 -9 11 -10 -5z m34 -158
c2 -14 1 -29 -4 -32 -10 -6 -23 42 -14 56 8 14 12 9 18 -24z"/>
<path d="M992 2443 c-6 -10 -14 -17 -19 -15 -4 1 -8 -6 -8 -15 1 -10 -2 -20
-5 -23 -3 -3 -18 -29 -33 -57 -22 -42 -25 -51 -11 -46 13 5 15 2 9 -18 -4 -13
-4 -21 0 -16 5 4 9 15 10 25 1 9 7 28 14 40 7 13 10 26 7 29 -3 4 -2 11 3 17
18 22 52 89 47 93 -2 2 -9 -4 -14 -14z"/>
<path d="M2004 2446 c-3 -8 -1 -31 5 -52 6 -20 8 -41 6 -45 -3 -4 -1 -9 4 -11
6 -1 16 -64 25 -138 8 -74 17 -146 21 -160 4 -16 1 -13 -9 9 -9 18 -16 52 -17
75 -1 35 -2 37 -9 16 -7 -20 -8 -16 -9 23 -1 26 -5 47 -10 47 -4 0 -13 15 -19
33 -11 30 -11 28 -6 -18 6 -59 44 -182 87 -283 16 -40 30 -81 30 -90 0 -16 63
-131 79 -142 3 -3 14 -24 23 -48 10 -24 24 -42 34 -43 10 0 11 -2 4 -6 -9 -3
-4 -16 15 -41 26 -34 27 -39 26 -156 0 -81 -6 -141 -18 -181 -9 -33 -21 -101
-26 -151 -5 -50 -19 -116 -30 -145 -12 -30 -20 -54 -19 -54 2 0 -5 -12 -15
-27 -10 -15 -14 -33 -10 -39 4 -7 3 -9 -4 -6 -6 4 -23 -24 -42 -70 -39 -95
-51 -109 -163 -185 -48 -33 -90 -65 -94 -71 -8 -14 59 25 72 41 6 7 17 14 25
15 8 1 26 10 39 19 14 10 26 16 28 14 2 -1 -4 -22 -12 -46 -18 -50 -18 -53 -5
-45 6 3 10 14 10 24 0 10 9 30 21 45 11 14 17 31 13 37 -4 8 -3 9 4 5 7 -4 12
-2 12 4 0 7 11 25 25 42 26 31 32 30 15 -3 -6 -11 -7 -19 -1 -19 8 0 40 110
44 152 1 9 4 15 8 12 10 -6 50 97 42 109 -3 5 -1 7 4 4 14 -9 10 -54 -10 -99
-10 -21 -17 -42 -17 -47 0 -5 -5 -11 -11 -13 -6 -2 -9 -13 -7 -23 3 -16 10
-10 28 27 13 26 26 45 30 43 4 -2 7 2 7 10 0 8 -5 15 -10 15 -5 0 -4 7 3 15 7
8 17 12 23 8 6 -4 7 -1 2 6 -4 7 2 22 15 36 12 12 22 30 24 38 1 9 9 24 18 34
9 10 19 29 22 43 7 24 7 25 -9 5 -9 -11 -20 -19 -25 -18 -5 2 -7 -3 -4 -10 3
-8 -8 -26 -23 -42 -20 -20 -23 -26 -10 -22 16 6 16 4 -3 -23 -12 -17 -22 -30
-24 -30 -1 0 -2 18 -3 40 -1 25 6 54 18 74 11 19 21 54 23 78 4 49 22 131 35
156 22 41 30 103 26 191 -3 52 -9 99 -15 106 -5 6 -7 14 -4 18 3 3 1 14 -5 26
-7 12 -7 22 -2 26 9 5 24 -10 27 -27 1 -5 3 -14 4 -20 1 -7 5 -2 10 12 7 24 7
23 15 -12 4 -20 14 -39 23 -43 14 -5 15 -4 5 6 -27 27 -11 29 22 3 19 -14 33
-30 30 -34 -3 -4 3 -7 13 -6 9 0 16 -5 14 -12 -1 -8 2 -11 8 -7 14 9 42 -15
36 -31 -3 -7 2 -15 10 -18 8 -3 21 -21 29 -41 13 -31 13 -39 -2 -77 -23 -60
-43 -89 -57 -82 -6 4 -3 -2 7 -12 16 -17 16 -19 -3 -29 -11 -6 -16 -15 -12
-22 5 -8 21 7 45 44 20 30 37 54 38 52 0 -2 10 -52 23 -112 12 -61 17 -106 12
-104 -6 2 -14 21 -18 43 -15 76 -19 84 -34 84 -14 0 -15 -7 -9 -42 4 -24 7
-50 8 -58 1 -23 37 -79 37 -57 0 29 28 19 35 -14 10 -42 -2 -49 -14 -8 -5 21
-10 26 -10 14 -1 -23 38 -88 40 -65 1 13 16 -25 23 -57 1 -7 5 -16 9 -19 4 -4
7 -16 7 -26 0 -10 9 -35 20 -55 15 -28 20 -32 20 -17 0 11 -4 24 -8 30 -5 5
-16 36 -26 69 -9 33 -23 72 -30 86 -8 16 -10 32 -5 40 5 8 0 26 -12 45 -12 20
-21 56 -23 96 -3 34 -12 77 -20 93 -20 37 -20 52 -2 102 10 28 11 45 4 59 -18
33 -50 64 -61 57 -6 -3 -7 -1 -4 4 4 6 -10 23 -31 39 -77 58 -174 149 -226
213 -53 65 -116 173 -116 199 0 7 -4 11 -9 8 -4 -3 -13 6 -20 20 -15 34 -14
42 3 18 13 -17 14 -14 4 24 -7 30 -13 39 -19 30 -6 -8 -9 -9 -9 -1 0 6 -3 20
-6 30 -5 15 -4 15 5 3 15 -22 13 -7 -4 26 -9 18 -12 42 -8 70 3 24 1 49 -6 60
-9 15 -11 9 -6 -31 3 -36 2 -43 -4 -25 -5 14 -9 52 -10 84 -1 75 -18 179 -38
233 -8 23 -12 46 -8 52 3 6 4 11 0 11 -3 0 -8 -6 -11 -14z"/>
<path d="M1941 2428 c-1 -9 -6 -20 -13 -24 -7 -4 -8 -3 -4 4 4 7 1 12 -9 12
-12 0 -14 -4 -6 -19 6 -10 8 -21 4 -24 -3 -4 0 -13 7 -22 10 -12 10 -18 1 -29
-10 -12 -8 -13 10 -9 19 5 20 4 10 -15 -14 -26 -15 -54 -1 -32 7 12 11 10 19
-10 9 -23 10 -21 12 20 1 25 1 58 0 75 -3 35 -29 98 -30 73z"/>
<path d="M2187 2363 c-4 -3 -7 -13 -7 -22 0 -17 51 -120 82 -163 11 -16 16
-33 12 -39 -4 -7 -3 -9 3 -6 6 4 14 0 17 -9 3 -8 10 -12 16 -9 6 4 -11 37 -40
79 -28 40 -55 86 -59 102 -5 16 -12 38 -16 49 -8 20 -8 20 9 0 17 -20 17 -20
6 3 -12 24 -13 25 -23 15z"/>
<path d="M977 2318 c-2 -7 -4 -15 -3 -18 0 -3 -9 -19 -22 -37 -12 -17 -22 -37
-22 -43 0 -19 51 61 56 87 5 25 -1 31 -9 11z"/>
<path d="M843 2263 c-13 -8 -23 -19 -23 -23 0 -8 -60 -102 -79 -126 -6 -7 -7
-14 -4 -17 3 -3 -4 -18 -16 -33 -11 -15 -21 -31 -21 -37 0 -6 -8 -20 -17 -31
-17 -20 -17 -20 0 -7 23 18 22 5 -3 -26 -11 -14 -20 -20 -20 -13 0 7 -3 11 -6
7 -10 -10 6 -26 21 -21 13 5 29 36 30 59 0 6 10 26 21 45 12 19 29 57 39 83
13 33 21 44 26 35 7 -10 9 -10 9 2 1 20 35 92 41 86 3 -3 10 4 17 14 14 24 14
24 -15 3z"/>
<path d="M2127 2123 c-3 -5 -2 -26 2 -48 l7 -40 5 43 c4 40 -3 63 -14 45z"/>
<path d="M784 2023 c-10 -15 -21 -30 -24 -33 -3 -3 -15 -21 -28 -40 -23 -34
-23 -34 13 5 47 52 69 84 62 91 -3 3 -14 -7 -23 -23z"/>
<path d="M2340 2014 c5 -19 15 -43 23 -52 8 -9 27 -43 42 -74 15 -32 31 -58
35 -58 4 0 11 -10 15 -22 3 -13 8 -18 11 -12 5 13 -45 109 -87 168 -16 22 -29
48 -29 57 0 10 -4 20 -9 23 -5 4 -5 -9 -1 -30z"/>
<path d="M2134 2007 c-3 -16 -4 -31 0 -34 3 -4 7 5 7 18 1 21 2 21 9 -6 7 -28
8 -28 9 -5 0 14 -3 32 -8 39 -8 12 -11 9 -17 -12z"/>
<path d="M1893 1960 c-2 -24 9 -31 47 -34 18 -1 26 2 23 8 -4 6 6 0 21 -14 15
-13 36 -25 46 -25 11 0 19 -4 19 -9 -1 -10 30 -30 37 -23 12 12 -47 63 -103
88 -74 34 -88 36 -90 9z"/>
<path d="M1808 1942 c3 -10 -1 -13 -14 -10 -10 3 -31 -1 -45 -8 -15 -7 -29
-10 -32 -7 -4 3 -13 1 -20 -6 -8 -6 -22 -9 -31 -5 -12 5 -16 0 -17 -17 l0 -24
-9 23 c-5 12 -14 22 -20 22 -14 0 -8 -22 10 -37 12 -9 13 -14 3 -24 -18 -18
-16 -28 4 -25 10 2 18 9 19 17 0 8 2 24 2 37 1 13 7 20 12 17 7 -4 6 -13 -1
-27 -8 -14 -8 -23 0 -31 8 -8 11 -6 11 7 0 9 4 15 8 12 5 -3 22 8 37 24 18 19
39 30 56 30 20 0 30 6 35 22 6 20 8 20 19 5 12 -17 55 -24 55 -9 -1 21 -20 33
-52 30 -26 -1 -34 -6 -30 -16z"/>
<path d="M2176 1911 c9 -75 28 -116 89 -191 95 -115 139 -159 178 -175 21 -9
35 -20 32 -25 -4 -6 2 -7 12 -3 10 3 15 3 11 -2 -4 -4 3 -16 15 -25 12 -10 19
-21 16 -25 -4 -3 -14 1 -23 10 -9 9 -16 12 -16 6 0 -5 14 -20 32 -32 17 -13
28 -17 23 -9 -5 9 -4 11 4 6 6 -4 9 -11 6 -16 -6 -10 33 -80 45 -80 10 0 1 38
-11 45 -4 3 -5 13 -2 22 4 9 -1 19 -11 25 -11 6 -14 14 -7 25 8 15 -10 121
-25 144 -11 19 -24 -3 -13 -23 8 -15 8 -23 -1 -32 -6 -6 -10 -6 -9 -1 5 17
-21 83 -37 96 -9 7 -25 15 -37 16 -28 5 -34 12 -18 22 10 6 8 10 -6 16 -10 5
-22 9 -26 9 -18 2 -36 40 -31 65 4 19 0 32 -15 45 -25 22 -28 11 -5 -15 9 -10
14 -23 12 -30 -2 -7 -30 25 -61 70 -31 46 -55 87 -51 92 6 10 -9 12 -19 2 -4
-3 0 -14 9 -24 8 -9 16 -26 17 -37 0 -11 5 -18 9 -16 4 3 8 2 9 -3 4 -42 28
-84 89 -153 19 -22 28 -27 24 -15 -7 18 -6 18 9 6 9 -7 15 -17 12 -21 -7 -11
35 -41 46 -34 4 2 6 -4 4 -15 -2 -11 3 -25 10 -31 11 -10 13 -6 9 17 -5 28 -5
28 11 6 8 -12 12 -30 9 -40 -5 -15 -4 -15 5 -3 6 8 11 11 12 5 2 -31 9 -49 21
-56 7 -5 10 -9 5 -9 -4 0 0 -11 9 -25 32 -49 7 -35 -32 17 -24 32 -47 53 -59
53 -11 1 -19 7 -17 14 1 7 -1 10 -6 7 -5 -3 -18 2 -28 10 -10 9 -14 13 -8 10
6 -3 11 1 11 9 0 8 -4 13 -7 12 -4 -1 -19 11 -34 26 -14 15 -26 24 -26 20 0
-5 5 -14 12 -21 9 -9 9 -12 0 -12 -14 0 -31 31 -25 46 2 6 -7 24 -21 40 -60
71 -78 88 -72 71 4 -11 2 -16 -5 -12 -6 4 -8 14 -5 22 4 9 1 22 -5 29 -6 8 -9
14 -5 14 4 0 -1 15 -10 32 -9 18 -21 44 -25 58 -6 16 -6 5 -3 -29z m144 -118
c0 -6 3 -13 8 -15 4 -1 18 -19 31 -38 35 -49 -3 -18 -41 34 -29 41 -42 89 -13
50 8 -10 15 -24 15 -31z m-18 -78 c10 -11 17 -24 18 -29 0 -13 -28 13 -53 48
-19 28 -19 29 -2 16 11 -8 28 -24 37 -35z"/>
<path d="M740 1742 c-33 -64 -45 -112 -28 -112 4 0 8 12 8 27 0 14 7 34 15 43
9 10 17 27 20 38 2 11 9 30 15 42 6 12 10 24 8 26 -3 2 -20 -27 -38 -64z"/>
<path d="M1840 1712 c-57 -7 -89 -25 -140 -77 -51 -52 -63 -79 -23 -56 13 8
14 10 3 11 -9 0 -5 6 10 17 14 10 35 29 48 43 13 14 21 19 17 13 -4 -8 1 -13
12 -13 14 0 15 -2 4 -9 -10 -7 -11 -13 -1 -31 10 -20 16 -21 63 -15 58 8 69
18 64 58 -4 32 2 33 34 9 43 -31 109 -64 109 -53 0 6 7 11 16 11 23 0 -64 65
-96 73 -14 3 -41 9 -60 14 -19 5 -46 7 -60 5z m20 -55 c0 -23 -33 -19 -38 5
-2 12 3 16 17 15 13 -1 21 -8 21 -20z"/>
<path d="M846 1684 c-9 -23 -7 -44 3 -44 11 0 21 49 11 55 -4 3 -11 -2 -14
-11z"/>
<path d="M970 1664 c-36 -20 -73 -44 -83 -55 -10 -10 -27 -19 -37 -19 -11 0
-20 -4 -20 -10 0 -5 4 -10 9 -10 5 0 17 -3 27 -7 12 -5 15 -3 9 6 -6 10 -2 11
15 6 16 -5 29 0 50 20 16 15 33 24 38 21 5 -3 12 3 15 13 2 11 13 24 24 30 18
9 20 7 16 -13 -3 -13 0 -33 7 -45 10 -19 18 -22 63 -19 49 3 53 5 62 36 5 17
12 32 15 32 3 0 27 -21 54 -45 51 -47 66 -52 47 -16 -25 46 -154 111 -219 111
-15 0 -56 -17 -92 -36z m170 -18 c0 -19 -25 -27 -39 -13 -18 18 -13 27 14 27
15 0 25 -6 25 -14z"/>
<path d="M760 1636 c0 -14 -4 -28 -10 -31 -5 -3 -10 -16 -9 -28 1 -20 2 -20 9
3 8 25 8 25 9 -5 1 -26 3 -27 12 -12 6 9 7 27 4 38 -5 14 -3 19 3 15 6 -3 14
-1 18 5 4 8 3 9 -4 5 -8 -5 -12 0 -12 13 0 12 -4 21 -10 21 -5 0 -10 -11 -10
-24z"/>
<path d="M997 1574 c3 -8 13 -14 22 -15 9 0 24 -2 35 -4 27 -5 6 11 -31 23
-26 9 -31 8 -26 -4z"/>
<path d="M728 1494 c-1 -27 -2 -71 -3 -99 -1 -27 2 -64 6 -82 4 -18 4 -33 0
-33 -11 0 -7 -54 4 -62 6 -5 4 -8 -5 -8 -9 0 -11 -3 -5 -8 11 -8 35 -89 36
-125 0 -21 1 -21 9 -2 5 11 9 17 9 14 1 -3 6 -32 12 -65 13 -65 17 -91 18
-116 1 -9 7 -23 14 -30 6 -7 23 -36 36 -65 13 -29 28 -50 32 -47 5 3 6 -1 3
-9 -3 -8 2 -21 10 -30 9 -9 16 -20 16 -24 0 -5 14 -22 30 -38 39 -37 38 -28
-5 39 -19 30 -35 58 -35 61 0 4 -9 19 -19 34 -11 15 -23 40 -27 57 -4 16 -13
38 -20 49 -7 11 -19 45 -28 75 -13 47 -13 52 -1 36 8 -11 15 -23 15 -28 0 -4
5 -8 11 -8 8 0 8 4 0 13 -7 9 -7 17 0 24 7 7 4 14 -7 24 -15 12 -17 12 -9 0 5
-10 4 -12 -3 -7 -7 4 -12 14 -12 22 0 8 -4 22 -9 32 -28 52 -56 213 -57 325
-1 116 -12 176 -16 81z"/>
<path d="M1706 1532 c-3 -5 0 -9 7 -10 7 0 30 -5 52 -11 41 -11 183 -15 173
-6 -5 5 -127 17 -180 19 -10 0 -18 4 -18 8 0 11 -27 10 -34 0z"/>
<path d="M976 1488 c3 -4 38 -7 77 -7 81 1 73 6 -20 12 -34 2 -60 0 -57 -5z"/>
<path d="M665 1340 c-8 -25 3 -62 16 -55 5 4 9 1 9 -6 0 -7 3 -9 7 -5 5 4 0
14 -11 21 -13 10 -17 21 -12 39 8 31 0 35 -9 6z"/>
<path d="M616 1280 c3 -14 12 -32 19 -40 7 -8 17 -28 22 -45 l10 -30 5 25 c2
14 -4 44 -14 65 -10 22 -15 30 -12 18 7 -31 -2 -29 -21 5 -15 26 -16 26 -9 2z"/>
<path d="M1243 1283 c-4 -10 -15 -29 -25 -42 -36 -47 -12 -121 49 -146 49 -21
54 -11 9 16 -20 12 -41 29 -46 39 -17 33 -11 77 15 108 27 33 31 42 15 42 -6
0 -14 -8 -17 -17z"/>
<path d="M2599 1291 c-3 -21 -4 -26 -13 -39 -5 -8 -4 -18 3 -23 6 -5 9 -6 6
-3 -2 4 2 19 10 35 10 18 11 30 5 34 -6 3 -11 1 -11 -4z"/>
<path d="M2381 1221 l-1 -33 19 23 c11 13 17 28 14 33 -3 4 -9 3 -13 -4 -6 -9
-9 -9 -13 1 -3 8 -6 -1 -6 -20z"/>
<path d="M1721 1199 c0 -9 -9 -27 -19 -40 -19 -22 -20 -22 -61 -6 -36 15 -46
15 -74 4 -17 -8 -39 -22 -47 -32 -14 -18 -14 -18 10 -2 31 22 108 23 116 2 5
-13 9 -13 35 0 33 17 52 48 46 73 -4 15 -5 15 -6 1z"/>
<path d="M1806 1159 c62 -79 134 -184 135 -197 0 -12 2 -13 6 -4 11 27 -101
199 -137 210 -12 4 -13 2 -4 -9z"/>
<path d="M1296 1151 c-3 -5 5 -12 18 -15 13 -3 46 -22 74 -41 55 -38 92 -45
92 -19 0 12 -6 15 -22 11 -15 -4 -33 5 -66 34 -42 37 -84 50 -96 30z"/>
<path d="M1039 1031 c-22 -23 -29 -38 -28 -68 0 -36 17 -93 18 -65 1 7 5 10
11 7 10 -6 4 20 -10 40 -3 6 -5 16 -4 23 1 6 2 16 3 21 0 5 13 23 27 40 33 39
22 40 -17 2z"/>
<path d="M897 983 c-11 -18 55 -178 103 -249 16 -22 40 -69 54 -105 15 -35 36
-77 48 -93 17 -24 18 -28 4 -23 -27 11 -9 -11 32 -38 70 -45 135 -113 129
-135 -3 -11 -2 -18 3 -15 4 3 13 -2 20 -10 7 -8 19 -15 27 -15 8 0 11 -5 8
-10 -4 -6 -11 -7 -17 -4 -7 4 -8 2 -4 -4 8 -14 33 -5 40 14 3 8 1 12 -4 9 -5
-3 -18 3 -29 14 -11 11 -21 19 -23 18 -2 -1 3 3 11 10 8 7 20 9 30 4 27 -14
225 -4 288 14 80 23 233 103 233 122 0 11 -7 8 -29 -10 -26 -21 -65 -42 -146
-78 -116 -50 -279 -52 -380 -3 -33 16 -66 35 -73 42 -8 7 -30 25 -50 40 -25
19 -49 56 -84 127 -26 55 -75 152 -108 214 -33 63 -64 129 -68 145 -5 18 -11
26 -15 19z"/>
<path d="M2490 961 c0 -12 5 -20 12 -18 7 1 12 -15 15 -42 2 -36 10 -51 39
-77 20 -19 33 -38 29 -44 -4 -7 1 -7 13 1 12 7 18 17 16 21 -3 5 -9 6 -14 3
-5 -3 -12 0 -16 6 -4 8 -3 9 4 5 7 -4 12 -2 12 3 0 6 -5 11 -11 11 -5 0 -7 6
-3 13 5 9 4 9 -6 0 -19 -18 -53 2 -45 27 3 10 1 21 -5 25 -5 3 -10 11 -10 17
0 6 9 -1 20 -15 23 -29 26 -41 8 -31 -10 5 -10 4 -1 -6 7 -8 16 -10 20 -7 8 9
-18 58 -54 100 -21 26 -23 27 -23 8z"/>
<path d="M1102 915 c13 -20 33 -38 46 -41 12 -4 22 -10 22 -15 0 -5 7 -9 16
-9 8 0 12 -4 9 -10 -3 -5 -1 -10 4 -10 6 0 11 4 11 8 0 5 28 3 63 -5 106 -23
296 -20 412 7 109 25 141 28 168 16 9 -5 17 -4 17 1 0 20 -47 32 -86 22 -20
-6 -50 -9 -66 -7 -19 3 -28 0 -28 -9 0 -7 -10 -13 -22 -14 -33 -1 -100 -8
-124 -14 -11 -2 -80 0 -152 5 -117 8 -138 13 -197 42 -37 17 -71 40 -76 50 -5
10 -16 18 -24 18 -12 0 -10 -8 7 -35z"/>
<path d="M2445 907 c8 -13 12 -27 8 -31 -5 -4 -2 -6 6 -4 8 2 16 -4 18 -13 5
-22 121 -144 129 -136 4 4 13 2 21 -4 17 -15 16 -9 -3 29 -19 38 -27 41 -18 7
3 -14 4 -25 1 -25 -4 0 -42 45 -87 100 -77 96 -108 127 -75 77z"/>
<path d="M2576 899 c30 -35 65 -99 59 -109 -3 -5 -1 -11 5 -15 5 -3 10 -11 10
-16 0 -6 -4 -7 -10 -4 -20 12 -9 -9 40 -81 28 -40 50 -76 50 -79 0 -3 12 -24
27 -48 16 -23 28 -46 28 -52 0 -5 5 -17 10 -25 5 -8 19 -37 30 -65 12 -31 27
-51 39 -53 17 -4 17 -2 -2 19 -12 12 -19 26 -15 32 3 5 -4 30 -15 56 -11 25
-23 53 -26 61 -8 22 -76 114 -76 104 0 -5 -6 2 -13 16 -29 54 -42 75 -54 83
-6 4 -10 20 -9 35 6 51 -35 131 -79 154 -19 10 -19 10 1 -13z"/>
<path d="M1722 814 c-29 -19 -57 -32 -63 -29 -5 4 -9 -1 -9 -9 0 -11 6 -13 18
-9 29 11 130 87 110 82 -2 0 -27 -16 -56 -35z"/>
<path d="M1229 812 c11 -21 70 -62 90 -62 6 0 11 5 11 11 0 6 -6 9 -13 6 -7
-3 -18 2 -24 11 -6 10 -25 25 -43 36 -32 18 -32 18 -21 -2z"/>
<path d="M1952 741 c-34 -42 -42 -62 -18 -41 14 11 59 80 52 80 -1 0 -17 -18
-34 -39z"/>
<path d="M593 738 c-13 -6 -23 -15 -23 -19 0 -13 32 -27 51 -22 29 8 12 22
-19 17 l-27 -4 25 20 c28 22 26 24 -7 8z"/>
<path d="M2568 681 c12 -10 22 -24 22 -30 0 -6 6 -11 14 -11 9 0 13 -7 11 -19
-2 -11 3 -25 11 -32 8 -6 14 -8 14 -4 0 4 8 1 18 -6 16 -13 16 -13 2 6 -8 11
-22 25 -30 32 -8 7 -11 13 -6 13 13 0 -34 50 -59 61 -17 9 -17 7 3 -10z"/>
<path d="M879 673 c10 -19 74 -81 131 -126 19 -16 38 -38 43 -49 15 -40 55
-234 58 -278 2 -25 9 -60 16 -77 7 -18 10 -33 6 -34 -5 0 1 -4 13 -9 11 -4 26
-26 34 -49 7 -23 17 -44 22 -47 5 -3 -1 18 -12 48 -42 109 -60 169 -54 180 5
7 2 8 -7 3 -11 -6 -11 -5 -2 5 7 7 8 19 3 29 -9 19 -51 183 -57 228 -4 24 -18
42 -57 71 -28 22 -70 58 -94 81 -45 44 -58 51 -43 24z"/>
<path d="M678 637 c-7 -7 -35 -30 -61 -50 -27 -20 -46 -37 -42 -37 11 0 89 56
109 79 21 23 16 29 -6 8z"/>
<path d="M2676 632 c-7 -12 31 -92 44 -92 6 0 9 -4 6 -9 -3 -5 1 -14 10 -21 8
-7 13 -19 10 -27 -3 -7 -1 -13 4 -13 5 0 6 -7 3 -17 -4 -10 -2 -14 4 -10 5 4
10 -6 10 -23 0 -16 -4 -27 -9 -24 -4 3 -5 -2 -2 -10 3 -9 10 -16 15 -16 5 0 9
-10 8 -22 0 -22 -1 -22 -9 -3 -6 15 -9 8 -9 -28 -1 -27 3 -46 8 -43 5 4 12 0
14 -6 3 -7 3 3 1 22 -4 25 -3 31 5 20 5 -9 9 -50 7 -92 -1 -42 2 -74 6 -72 4
3 8 26 9 52 0 37 2 43 10 27 7 -16 8 -14 3 10 -3 17 -8 45 -11 63 -3 17 -9 32
-13 32 -8 0 -20 58 -26 118 -3 38 -49 122 -66 122 -6 0 -8 3 -5 6 3 4 1 16 -5
28 -7 11 -11 24 -10 29 3 9 -6 9 -12 -1z"/>
<path d="M2587 574 c3 -8 11 -14 19 -14 7 0 22 -16 32 -36 15 -29 20 -33 25
-20 4 9 3 15 -1 12 -4 -2 -13 7 -20 22 -12 28 -65 62 -55 36z"/>
<path d="M2061 562 c-7 -12 -14 -50 -16 -84 -3 -33 -12 -74 -20 -89 -8 -16
-22 -42 -30 -57 -16 -30 -55 -71 -55 -57 0 4 -9 -4 -21 -19 -11 -14 -25 -24
-30 -21 -5 4 -9 1 -9 -5 0 -6 -6 -8 -12 -4 -7 4 -10 3 -5 -1 4 -5 -5 -17 -20
-27 -16 -10 -25 -18 -21 -18 12 0 119 58 137 74 9 8 20 14 25 13 5 -1 24 27
43 63 23 47 33 78 33 113 0 26 5 47 10 47 6 0 10 8 10 18 0 14 -2 15 -10 2 -8
-12 -10 -9 -10 12 0 14 5 28 12 30 6 2 9 11 6 18 -3 11 -8 9 -17 -8z"/>
<path d="M2470 547 c0 -8 7 -17 15 -21 8 -3 15 -15 15 -26 0 -11 4 -20 10 -20
5 0 7 -7 4 -15 -4 -8 -1 -15 6 -15 7 0 10 -7 7 -15 -4 -8 -2 -17 3 -20 6 -4
10 -17 10 -31 0 -13 5 -24 11 -24 11 0 9 19 -7 67 -5 15 -4 15 5 3 16 -24 44
-60 63 -80 13 -14 14 -20 3 -23 -7 -3 -18 0 -24 6 -8 8 -11 7 -11 -3 0 -13 -2
-13 -11 0 -7 10 -9 11 -7 2 2 -8 8 -14 13 -14 17 -1 40 -41 41 -71 1 -16 9
-36 19 -45 18 -16 18 -16 1 13 -16 29 -16 29 13 -5 17 -19 31 -28 31 -20 0 8
-14 29 -32 47 -18 18 -26 33 -20 33 9 0 7 8 -4 25 -10 16 -12 25 -5 25 6 0 17
-11 23 -25 6 -14 14 -25 18 -25 5 0 7 -7 6 -16 0 -9 5 -19 12 -21 10 -4 12 6
10 38 -2 24 -9 44 -17 47 -9 3 -11 -2 -7 -19 l7 -24 -15 25 c-7 13 -12 36 -10
50 3 19 2 21 -5 10 -6 -8 -11 -12 -13 -10 -2 3 -18 22 -36 43 -18 21 -32 43
-32 50 1 7 10 1 20 -12 11 -13 20 -19 20 -15 0 5 -29 40 -65 77 -36 38 -65 62
-65 54z"/>
<path d="M2680 551 c0 -7 -5 -9 -12 -5 -7 4 -2 -5 11 -19 30 -33 31 -33 26 -5
-5 25 -25 49 -25 29z"/>
<path d="M610 505 c-19 -19 -30 -35 -24 -35 5 0 24 16 43 35 18 19 29 35 24
35 -5 0 -24 -16 -43 -35z"/>
<path d="M540 504 c-23 -14 -23 -14 -2 -9 33 9 27 -12 -9 -30 -17 -9 -28 -19
-25 -22 3 -3 12 0 20 6 8 7 21 9 27 5 8 -4 9 -3 5 4 -4 7 -2 12 3 12 6 0 10
11 9 25 -1 14 -3 25 -3 25 0 -1 -11 -7 -25 -16z"/>
<path d="M2675 490 c5 -8 17 -27 27 -42 10 -14 18 -37 18 -50 0 -12 5 -30 10
-38 7 -10 9 2 6 40 -4 65 -14 93 -31 86 -7 -2 -18 1 -25 7 -10 9 -11 9 -5 -3z"/>
<path d="M2631 428 c6 -11 16 -17 24 -14 7 2 15 -4 18 -15 3 -10 11 -19 17
-19 10 0 10 3 0 15 -7 8 -9 15 -6 15 16 0 -29 35 -45 36 -15 1 -16 -2 -8 -18z"/>
<path d="M2806 390 c3 -19 12 -49 19 -66 17 -36 25 -124 17 -174 -4 -29 -6
-31 -12 -15 -6 16 -10 10 -22 -30 -10 -35 -11 -53 -3 -61 5 -7 13 -10 18 -7 4
2 7 -5 7 -16 0 -12 7 -21 15 -21 12 0 13 4 6 18 -10 19 -13 75 -4 104 4 16 7
17 34 3 16 -9 29 -13 29 -11 0 3 16 -2 35 -10 43 -18 55 -18 55 0 0 14 -106
86 -127 86 -8 0 -13 14 -13 39 0 22 -3 48 -6 58 -5 17 24 -13 97 -95 16 -19
34 -32 40 -30 5 2 -8 22 -30 46 -46 48 -44 53 8 16 l36 -25 -40 36 c-21 19
-45 33 -52 31 -7 -3 -12 0 -10 6 1 6 -13 21 -30 32 -21 14 -40 39 -53 71 -18
43 -20 45 -14 15z m120 -241 c29 -16 57 -36 61 -42 5 -9 3 -9 -8 0 -9 7 -39
17 -67 24 -53 11 -68 21 -57 39 9 14 12 13 71 -21z"/>
<path d="M399 391 c-13 -11 -21 -22 -18 -26 4 -3 19 5 34 19 32 30 19 35 -16
7z"/>
<path d="M2640 390 c0 -5 5 -10 10 -10 6 0 10 -7 10 -16 0 -8 4 -13 9 -10 5 3
11 -4 15 -17 5 -18 8 -20 16 -7 13 19 13 33 0 25 -5 -3 -10 -3 -10 2 -1 12
-50 45 -50 33z"/>
<path d="M412 333 c2 -5 -10 -22 -27 -37 -16 -15 -24 -25 -17 -21 6 3 12 2 12
-2 0 -5 -6 -15 -12 -22 -11 -10 -10 -11 4 -6 9 4 19 14 22 23 3 9 12 27 21 39
11 14 13 23 5 28 -6 3 -9 2 -8 -2z"/>
<path d="M480 304 c-1 -5 -5 -28 -9 -51 -5 -24 -4 -40 0 -37 5 3 9 14 9 25 0
11 4 18 9 15 4 -3 7 6 5 20 -2 25 -14 46 -14 28z"/>
<path d="M1317 218 c18 -18 35 -29 39 -26 7 8 -45 57 -61 58 -5 0 5 -14 22
-32z"/>
<path d="M1920 209 c-14 -11 -40 -27 -58 -35 -37 -19 -82 -74 -60 -75 7 0 3
-4 -9 -9 -22 -9 -63 -65 -63 -85 0 -6 6 -1 12 10 6 11 31 39 55 63 24 23 41
47 38 52 -3 5 0 7 7 5 8 -3 27 8 43 25 30 32 57 42 34 13 -11 -13 -11 -15 -1
-9 13 8 36 56 30 62 -2 1 -14 -6 -28 -17z"/>
<path d="M2484 162 c-1 -66 -1 -66 7 -21 5 26 6 56 1 68 -4 13 -8 -4 -8 -47z"/>
<path d="M1753 213 c-18 -2 -33 -9 -33 -14 0 -9 35 -4 75 12 21 8 12 9 -42 2z"/>
<path d="M383 195 c-9 -24 3 -107 17 -115 9 -6 9 -9 -1 -13 -9 -4 -10 -8 -4
-14 6 -4 12 -17 13 -28 8 -41 12 -26 6 21 -3 27 -6 70 -6 97 0 26 -4 47 -10
47 -5 0 -6 5 -3 10 3 6 4 10 0 10 -3 0 -8 -7 -12 -15z"/>
<path d="M2625 166 c0 -13 6 -30 13 -39 8 -9 11 -21 8 -26 -4 -5 -2 -12 4 -16
16 -10 12 31 -5 45 -9 7 -13 21 -10 31 3 9 2 20 -3 22 -4 3 -8 -5 -7 -17z"/>
<path d="M64 154 c-8 -32 2 -124 15 -137 6 -6 21 -11 34 -11 l24 -2 -23 38
c-13 21 -24 45 -24 53 0 9 -4 13 -10 10 -6 -4 -8 10 -6 35 5 45 0 53 -10 14z"/>
<path d="M1706 139 c-27 -16 -46 -32 -44 -34 7 -8 48 7 43 16 -3 4 8 15 25 24
16 8 30 18 30 20 0 8 -4 6 -54 -26z"/>
<path d="M2420 109 c0 -34 2 -60 6 -57 9 10 12 108 3 114 -5 3 -9 -23 -9 -57z"/>
<path d="M2599 158 c0 -7 -2 -26 -4 -43 -1 -16 -1 -24 2 -16 5 11 7 11 14 0 6
-10 9 -8 9 9 0 12 -4 22 -9 22 -5 0 -7 9 -4 20 3 11 3 20 -1 20 -3 0 -6 -6 -7
-12z"/>
<path d="M2664 129 c8 -12 13 -26 12 -33 -2 -6 -1 -8 1 -4 2 4 12 4 21 1 11
-4 6 6 -12 25 -34 37 -44 41 -22 11z"/>
<path d="M677 79 c-15 -27 -27 -57 -27 -67 1 -9 14 12 31 46 37 77 34 89 -4
21z"/>
<path d="M1226 93 c23 -36 54 -69 54 -58 0 15 -52 85 -63 85 -5 0 -1 -12 9
-27z"/>
<path d="M1144 49 c5 -41 12 -57 20 -48 8 8 -6 89 -16 89 -5 0 -7 -19 -4 -41z"/>
<path d="M1830 53 c-34 -23 -53 -43 -48 -49 3 -2 13 5 23 16 20 22 40 27 29 8
-4 -7 1 -6 11 4 27 25 15 42 -15 21z"/>
</g>
</svg>
